<?xml version="1.0" encoding="utf-8"?>
<!-- Generator: Adobe Illustrator 27.0.0, SVG Export Plug-In . SVG Version: 6.00 Build 0)  -->
<svg version="1.1" id="Layer_1" xmlns:svgjs="http://svgjs.dev/svgjs"
	 xmlns="http://www.w3.org/2000/svg" xmlns:xlink="http://www.w3.org/1999/xlink" x="0px" y="0px" viewBox="0 0 800 800"
	 style="enable-background:new 0 0 800 800;" xml:space="preserve">
<style type="text/css">
	.st0{opacity:0.4;}
	.st1{opacity:0.1;fill:none;stroke:#DBDBDB;stroke-width:0.5;stroke-miterlimit:4;enable-background:new    ;}
	.st2{opacity:0.1243;fill:none;stroke:#D9D9D9;stroke-width:0.7027;enable-background:new    ;}
	.st3{opacity:0.1486;fill:none;stroke:#D6D6D6;stroke-width:0.9054;enable-background:new    ;}
	.st4{opacity:0.173;fill:none;stroke:#D3D3D3;stroke-width:1.1077;stroke-miterlimit:3.9985;enable-background:new    ;}
	.st5{opacity:0.1973;fill:none;stroke:#D1D1D1;stroke-width:1.3108;enable-background:new    ;}
	.st6{opacity:0.2216;fill:none;stroke:#CECECE;stroke-width:1.5135;enable-background:new    ;}
	.st7{opacity:0.2459;fill:none;stroke:#CBCBCB;stroke-width:1.7162;enable-background:new    ;}
	.st8{opacity:0.2703;fill:none;stroke:#C8C8C8;stroke-width:1.9189;enable-background:new    ;}
	.st9{opacity:0.2946;fill:none;stroke:#C6C6C6;stroke-width:2.1216;enable-background:new    ;}
	.st10{opacity:0.3189;fill:none;stroke:#C3C3C3;stroke-width:2.3243;enable-background:new    ;}
	.st11{opacity:0.3432;fill:none;stroke:#C0C0C0;stroke-width:2.527;enable-background:new    ;}
	.st12{opacity:0.3676;fill:none;stroke:#BDBDBD;stroke-width:2.7297;enable-background:new    ;}
	.st13{opacity:0.3919;fill:none;stroke:#BABABA;stroke-width:2.9324;enable-background:new    ;}
	.st14{opacity:0.4162;fill:none;stroke:#B7B7B7;stroke-width:3.1351;enable-background:new    ;}
	.st15{opacity:0.4405;fill:none;stroke:#B4B4B4;stroke-width:3.3378;enable-background:new    ;}
	.st16{opacity:0.4649;fill:none;stroke:#B0B0B0;stroke-width:3.5405;enable-background:new    ;}
	.st17{opacity:0.4892;fill:none;stroke:#ADADAD;stroke-width:3.7432;enable-background:new    ;}
	.st18{opacity:0.5135;fill:none;stroke:#AAAAAA;stroke-width:3.9459;enable-background:new    ;}
	.st19{opacity:0.5378;fill:none;stroke:#A7A7A7;stroke-width:4.1486;enable-background:new    ;}
	.st20{opacity:0.5622;fill:none;stroke:#A3A3A3;stroke-width:4.3514;enable-background:new    ;}
	.st21{opacity:0.5865;fill:none;stroke:#A0A0A0;stroke-width:4.5541;enable-background:new    ;}
	.st22{opacity:0.6108;fill:none;stroke:#9C9C9C;stroke-width:4.7568;enable-background:new    ;}
	.st23{opacity:0.6351;fill:none;stroke:#989898;stroke-width:4.9595;enable-background:new    ;}
	.st24{opacity:0.6595;fill:none;stroke:#959595;stroke-width:5.1622;enable-background:new    ;}
	.st25{opacity:0.6838;fill:none;stroke:#919191;stroke-width:5.3649;enable-background:new    ;}
	.st26{opacity:0.7081;fill:none;stroke:#8D8D8D;stroke-width:5.5676;enable-background:new    ;}
	.st27{opacity:0.7324;fill:none;stroke:#898989;stroke-width:5.7703;enable-background:new    ;}
	.st28{opacity:0.7568;fill:none;stroke:#858585;stroke-width:5.973;enable-background:new    ;}
	.st29{opacity:0.7811;fill:none;stroke:#808080;stroke-width:6.1757;enable-background:new    ;}
	.st30{opacity:0.8054;fill:none;stroke:#7C7C7C;stroke-width:6.3784;enable-background:new    ;}
	.st31{opacity:0.8297;fill:none;stroke:#777777;stroke-width:6.5811;enable-background:new    ;}
	.st32{opacity:0.8541;fill:none;stroke:#727272;stroke-width:6.7838;enable-background:new    ;}
	.st33{opacity:0.8784;fill:none;stroke:#6D6D6D;stroke-width:6.9865;enable-background:new    ;}
	.st34{opacity:0.9027;fill:none;stroke:#686868;stroke-width:7.1892;enable-background:new    ;}
	.st35{opacity:0.927;fill:none;stroke:#626262;stroke-width:7.3919;enable-background:new    ;}
	.st36{opacity:0.9514;fill:none;stroke:#5C5C5C;stroke-width:7.5946;enable-background:new    ;}
	.st37{opacity:0.9757;fill:none;stroke:#565656;stroke-width:7.7973;enable-background:new    ;}
	.st38{fill:none;stroke:#4F4F4F;stroke-width:8;}
</style>
<g transform="matrix(0.8660254037844387,0.49999999999999994,-0.49999999999999994,0.8660254037844387,253.58983848622447,-146.4101615137755)" class="st0">
	<path class="st1" d="M49.3,617.4l-59.4,70.8l-91-16l-31.6-86.8l59.4-70.8l91,16L49.3,617.4z"/>
	<path class="st2" d="M87.3,637.4l-59.2,78.9l-98.4-12.4l-39.1-91.3l59.2-78.9l98.4,12.4L87.3,637.4z"/>
	<path class="st3" d="M126.3,654.2L68,741.5l-105.6-8.1L-84.8,638l58.3-87.3l105.6,8.1L126.3,654.2z"/>
	<path class="st4" d="M166.1,667.7l-56.6,95.8L-3,760.5l-55.9-98.9l56.6-95.8l112.5,3.1L166.1,667.7z"/>
	<path class="st5" d="M206.4,678l-54,104.5l-119,2.6l-65.1-101.9l54-104.5l119-2.6L206.4,678z"/>
	<path class="st6" d="M246.9,684.9l-50.5,113.2L71.2,807L-3.5,702.7L47,589.5l125.2-8.9L246.9,684.9z"/>
	<path class="st7" d="M287.4,688.5l-46.2,121.9l-130.8,15.8l-84.6-106L72,598.3l130.8-15.8L287.4,688.5z"/>
	<path class="st8" d="M327.7,688.8l-41,130.6l-135.9,23.4L55.8,735.6l41-130.6l135.9-23.4L327.7,688.8z"/>
	<path class="st9" d="M367.6,685.7l-35,139.2l-140.5,31.6L86.7,748.8l35-139.2l140.5-31.6L367.6,685.7z"/>
	<path class="st10" d="M406.7,679.4l-28.1,147.6l-144.3,40.3L118.1,760l28.1-147.6l144.3-40.3L406.7,679.4z"/>
	<path class="st11" d="M444.9,669.9l-20.3,155.9l-147.4,49.5L150,769l20.3-155.9l147.4-49.5L444.9,669.9z"/>
	<path class="st12" d="M481.9,657.3l-11.7,163.9l-149.8,59.3L182.3,775.8L194,611.9l149.8-59.3L481.9,657.3z"/>
	<path class="st13" d="M517.6,641.5l-2.3,171.7l-151.4,69.5L214.8,780.5l2.3-171.7l151.4-69.5L517.6,641.5z"/>
	<path class="st14" d="M551.6,622.8l7.9,179.1L407.4,882l-160-98.9L239.5,604l152.1-80.2L551.6,622.8z"/>
	<path class="st15" d="M583.9,601.1l18.9,186.1l-151.9,91.2L280,783.6l-18.9-186.1l151.9-91.2L583.9,601.1z"/>
	<path class="st16" d="M614.1,576.7l30.6,192.7L493.8,872l-181.4-90l-30.6-192.7l150.8-102.6L614.1,576.7z"/>
	<path class="st17" d="M642.1,549.6L685,748.4L536.3,862.7l-191.6-84.4l-42.9-198.7l148.7-114.3L642.1,549.6z"/>
	<path class="st18" d="M667.7,520l55.9,204.3L578,850.6l-201.6-78l-55.9-204.3l145.6-126.3L667.7,520z"/>
	<path class="st19" d="M690.7,488.1l69.6,209.2L618.8,835.9l-211.1-70.7l-69.6-209.2l141.5-138.5L690.7,488.1z"/>
	<path class="st20" d="M711,453.9l83.7,213.6L658.4,818.4l-220-62.7l-83.7-213.6L491,391.2L711,453.9z"/>
	<path class="st21" d="M728.5,417.8L826.8,635L696.7,798.4l-228.5-53.9l-98.3-217.3L500,363.9L728.5,417.8z"/>
	<path class="st22" d="M742.9,379.7L856.3,600L733.5,775.8l-236.2-44.3L383.8,511.3l122.8-175.9L742.9,379.7z"/>
	<path class="st23" d="M754.2,340L883,562.5L768.5,750.9l-243.3-34L396.5,494.4L510.9,306L754.2,340z"/>
	<path class="st24" d="M762.3,298.9l144.5,223.9l-105,200.9l-249.6-23L407.7,476.8l105-200.9L762.3,298.9z"/>
	<path class="st25" d="M767,256.4l160.4,224.5l-94.5,213.3l-255-11.2L417.5,458.5l94.5-213.3L767,256.4z"/>
	<path class="st26" d="M768.3,212.9l176.5,224.3l-83,225.5L602.4,664L425.9,439.7l83-225.5L768.3,212.9z"/>
	<path class="st27" d="M766.2,168.6l192.7,223.2l-70.4,237.6l-263,14.3L432.8,420.5l70.4-237.6L766.2,168.6z"/>
	<path class="st28" d="M760.5,123.7l208.8,221.3l-56.7,249.3l-265.5,28L438.3,401L495,151.7L760.5,123.7z"/>
	<path class="st29" d="M751.3,78.3l224.8,218.4L934,557.4l-266.9,42.3L442.2,381.4l42.1-260.7L751.3,78.3z"/>
	<path class="st30" d="M738.4,32.9l240.7,214.5l-26.5,271.7l-267.2,57.2L444.7,361.8L471.2,90L738.4,32.9z"/>
	<path class="st31" d="M722-12.6l256.3,209.8l-10,282.3L702.1,552L445.8,342.3l10-282.3L722-12.6z"/>
	<path class="st32" d="M702.1-57.7l271.6,204l7.4,292.4L717,527.1l-271.6-204l-7.4-292.4L702.1-57.7z"/>
	<path class="st33" d="M678.6-102.2L965,95.1L990.7,397L730,501.5L443.5,304.3L417.8,2.4L678.6-102.2z"/>
	<path class="st34" d="M651.6-146L952.4,43.6l44.7,310.8L741,475.6L440.3,286L395.5-24.8L651.6-146z"/>
	<path class="st35" d="M621.2-188.8L935.7-7.8l64.5,319l-250,138.1L435.6,268.3l-64.5-319L621.2-188.8z"/>
	<path class="st36" d="M587.5-230.3L915-59l84.9,326.5L757.2,422.8L429.7,251.5L344.8-75L587.5-230.3z"/>
	<path class="st37" d="M550.5-270.4l339.8,160.7l105.9,333.3L762.3,396.2L422.5,235.6L316.6-97.7L550.5-270.4z"/>
	<path class="st38" d="M510.4-308.7l351.2,149.1L989,179.6L765.2,369.7L414,220.7L286.6-118.6L510.4-308.7z"/>
</g>
</svg>
